# xmcd
#
# Track frame offsets:
# 150
# 11899
# 27162
# 40881
# 51234
# 64769
# 80116
# 97130
# 118651
# 131520
# 148318
# 160031
# 178976
# 193991
#
# Disc length: 2719 seconds
#
#
# Revision: 0
# Processed by: cddbd v1.5.1PL0 Copyright (c) Steve Scherf et al.
# Submitted via: FreeRIP 2.91 
#
DISCID=d40a9d0e
DTITLE=The Drifters - Christmas With The Drifters
DYEAR=2003
DGENRE=xmas songs
TTITLE0=Christmas Ain't Christmas, New Year's Ain't New Year's
TTITLE1=The Little Drummer Boy
TTITLE2=Winter Wonderland
TTITLE3=Little St Nick
TTITLE4=I Saw Mommy Kissing Santa Claus
TTITLE5=We Wish You A Merry Christmas
TTITLE6=Santa Claus Is Comin' To Town
TTITLE7=The Christmas Song
TTITLE8=Please Come Home For Christmas
TTITLE9=Santa Claus Got The Blues
TTITLE10=White Christmas
TTITLE11=Silent Night
TTITLE12=O Holy Night
TTITLE13=Auld Lang Syne
EXTD=true_uk   ..... troyboy \nxmas songs.  Yuletide favourites. mmmmm\njingle jingle.
EXTT0=
EXTT1=
EXTT2=
EXTT3=
EXTT4=
EXTT5=
EXTT6=
EXTT7=
EXTT8=
EXTT9=
EXTT10=
EXTT11=
EXTT12=
EXTT13=
PLAYORDER=
